# xmcd CD database file
#
# Track frame offsets:
#	150
#	22899
#	44619
#	64335
#	89281
#	121377
#	141878
#	155002
#	171147
#	183676
#	199016
#	211248
#	230810
#	247008
#	272726
#	285697
#
# Disc length: 4036 seconds
#
# Revision: 1
# Processed by: cddbd v1.5.2PL0 Copyright (c) Steve Scherf et al.
# Submitted via: CDex 1.70beta2
#
DISCID=f50fc210
DTITLE=Benjamin Schmid - BeniSchmidObsession
DYEAR=2006
DGENRE=Jazz
TTITLE0=Souvenirs
TTITLE1=Swing 39
TTITLE2=Night and Day
TTITLE3=Manoir de mes reves
TTITLE4=Tears
TTITLE5=Troublant Bolero
TTITLE6=Bei dir war es immer so schön
TTITLE7=Time on my hands
TTITLE8=Embraceable You
TTITLE9=Sweet Georgia Brown
TTITLE10=Honeysuckle Rose
TTITLE11=Place Broukere
TTITLE12=Fascinating Rhythm
TTITLE13=Sweet Chorus
TTITLE14=Nuages
TTITLE15=Nocturne
EXTD=YEAR: 2006
EXTT0=
EXTT1=
EXTT2=
EXTT3=
EXTT4=
EXTT5=
EXTT6=
EXTT7=
EXTT8=
EXTT9=
EXTT10=
EXTT11=
EXTT12=
EXTT13=
EXTT14=
EXTT15=
PLAYORDER=
